<svg viewBox="0 0 19.9896 19.9896" fill="none" xmlns="http://www.w3.org/2000/svg">
<g id="Icon" clip-path="url(#clip0_0_45)">
<path id="Vector" d="M18.3238 9.99482H16.2582C15.8942 9.99404 15.54 10.1125 15.2497 10.3321C14.9594 10.5517 14.749 10.8604 14.6507 11.2109L12.6934 18.1739C12.6808 18.2172 12.6545 18.2552 12.6185 18.2822C12.5824 18.3092 12.5386 18.3238 12.4935 18.3238C12.4485 18.3238 12.4046 18.3092 12.3686 18.2822C12.3325 18.2552 12.3062 18.2172 12.2936 18.1739L7.69601 1.81573C7.6834 1.77247 7.65709 1.73448 7.62105 1.70745C7.58501 1.68042 7.54117 1.6658 7.49612 1.6658C7.45106 1.6658 7.40722 1.68042 7.37118 1.70745C7.33514 1.73448 7.30883 1.77247 7.29622 1.81573L5.3389 8.77878C5.241 9.1279 5.03188 9.43554 4.74326 9.65501C4.45465 9.87448 4.10231 9.99378 3.73973 9.99482H1.6658" stroke="var(--stroke-0, #4A90E2)" stroke-width="1.6658" stroke-linecap="round" stroke-linejoin="round"/>
</g>
<defs>
<clipPath id="clip0_0_45">
<rect width="19.9896" height="19.9896" fill="white"/>
</clipPath>
</defs>
</svg>
